<mxfile host="app.diagrams.net" modified="2023-04-23T21:08:16.909Z" agent="Mozilla/5.0 (Windows NT 10.0; Win64; x64) AppleWebKit/537.36 (KHTML, like Gecko) Chrome/112.0.0.0 Safari/537.36" version="21.2.1" etag="5Ut0yVui2apR1fAKvKLa" type="github">
  <diagram name="PÃ¡gina-1" id="Ac789uECIdd85RpVoQNj">
    <mxGraphModel>
      <root>
        <mxCell id="0" />
        <mxCell id="1" parent="0" />
      </root>
    </mxGraphModel>
  </diagram>
</mxfile>
